<svg width="414" height="414" viewBox="0 0 414 414" fill="none" xmlns="http://www.w3.org/2000/svg">
<path fill-rule="evenodd" clip-rule="evenodd" d="M282.01 189.222L367.923 136.779L406.417 212.592C415.716 254.012 364.762 269.214 323.849 266.741L282.007 189.222H282.01Z" fill="white"/>
<path fill-rule="evenodd" clip-rule="evenodd" d="M262.488 243.371L217.299 324.882L262.488 407.532L263.604 374.471H304.888C319.951 375.801 339.477 365.731 346.73 351.101L399.73 251.919C382.25 269.589 359.772 274.149 333.901 274.149H264.166L262.492 243.369L262.488 243.371Z" fill="white"/>
<path fill-rule="evenodd" clip-rule="evenodd" d="M161.521 142.876L74.9463 91.5833L121.134 20.401C152.065 -8.00955 189.806 30.1286 207.548 67.8737L161.522 142.879L161.521 142.876Z" fill="white"/>
<path fill-rule="evenodd" clip-rule="evenodd" d="M217.339 134.035L309.022 134.838L357.813 54.3546L328.981 69.4052L308.943 32.5267C302.77 18.4257 284.675 5.87108 268.635 6.49352L158.037 7.29074C181.643 14.3292 196.455 32.1946 209.012 55.3067L242.861 117.602L217.334 134.037L217.339 134.035Z" fill="white"/>
<path fill-rule="evenodd" clip-rule="evenodd" d="M8.69542 138.629L35.5205 159.588L10.2731 207.954C-2.35034 230.256 19.3361 251.983 33.1532 259.543C46.7558 266.988 67.8682 267.873 87.5924 267.604L123.096 209.566L149.922 224.076L103.372 137.823L8.69642 138.629H8.69542Z" fill="white"/>
<path fill-rule="evenodd" clip-rule="evenodd" d="M12.6396 250.679L70.2322 357.087C81.8039 371.866 103.632 375.359 126.251 374.822H187.002V274.056L71.8114 273.25C53.928 274.324 30.522 270.563 12.6396 250.679Z" fill="white"/>
</svg>
